<mxfile host="app.diagrams.net" modified="2022-02-15T03:36:09.428Z" agent="5.0 (Windows NT 10.0; Win64; x64) AppleWebKit/537.36 (KHTML, like Gecko) Chrome/98.0.4758.80 Safari/537.36 Edg/98.0.1108.50" etag="2dqZNpDP9Flyypm1qwQ2" version="16.4.3" type="github">
  <diagram id="R2lEEEUBdFMjLlhIrx00" name="Page-1">
    <mxGraphModel dx="1767" dy="852" grid="1" gridSize="10" guides="1" tooltips="1" connect="1" arrows="1" fold="1" page="1" pageScale="1" pageWidth="850" pageHeight="1100" math="0" shadow="0" extFonts="Permanent Marker^https://fonts.googleapis.com/css?family=Permanent+Marker">
      <root>
        <mxCell id="0" />
        <mxCell id="1" parent="0" />
        <mxCell id="Iq8c3u90SP98kCo1Fqfo-69" style="edgeStyle=none;curved=1;rounded=0;orthogonalLoop=1;jettySize=auto;html=1;exitX=0.75;exitY=1;exitDx=0;exitDy=0;entryX=0.5;entryY=0;entryDx=0;entryDy=0;endArrow=open;startSize=14;endSize=14;sourcePerimeterSpacing=8;targetPerimeterSpacing=8;" edge="1" parent="1" source="Iq8c3u90SP98kCo1Fqfo-1" target="Iq8c3u90SP98kCo1Fqfo-60">
          <mxGeometry relative="1" as="geometry" />
        </mxCell>
        <mxCell id="Iq8c3u90SP98kCo1Fqfo-70" style="edgeStyle=none;curved=1;rounded=0;orthogonalLoop=1;jettySize=auto;html=1;exitX=0.5;exitY=1;exitDx=0;exitDy=0;entryX=0.5;entryY=0;entryDx=0;entryDy=0;endArrow=open;startSize=14;endSize=14;sourcePerimeterSpacing=8;targetPerimeterSpacing=8;" edge="1" parent="1" source="Iq8c3u90SP98kCo1Fqfo-1" target="Iq8c3u90SP98kCo1Fqfo-59">
          <mxGeometry relative="1" as="geometry" />
        </mxCell>
        <mxCell id="Iq8c3u90SP98kCo1Fqfo-71" style="edgeStyle=none;curved=1;rounded=0;orthogonalLoop=1;jettySize=auto;html=1;entryX=0.5;entryY=0;entryDx=0;entryDy=0;endArrow=open;startSize=14;endSize=14;sourcePerimeterSpacing=8;targetPerimeterSpacing=8;exitX=0.089;exitY=0.994;exitDx=0;exitDy=0;exitPerimeter=0;" edge="1" parent="1" source="Iq8c3u90SP98kCo1Fqfo-1" target="Iq8c3u90SP98kCo1Fqfo-57">
          <mxGeometry relative="1" as="geometry">
            <mxPoint x="580" y="570" as="sourcePoint" />
          </mxGeometry>
        </mxCell>
        <mxCell id="Iq8c3u90SP98kCo1Fqfo-72" style="edgeStyle=none;curved=1;rounded=0;orthogonalLoop=1;jettySize=auto;html=1;exitX=0.25;exitY=1;exitDx=0;exitDy=0;entryX=0.597;entryY=0;entryDx=0;entryDy=0;entryPerimeter=0;endArrow=open;startSize=14;endSize=14;sourcePerimeterSpacing=8;targetPerimeterSpacing=8;" edge="1" parent="1" source="Iq8c3u90SP98kCo1Fqfo-1" target="Iq8c3u90SP98kCo1Fqfo-58">
          <mxGeometry relative="1" as="geometry" />
        </mxCell>
        <mxCell id="Iq8c3u90SP98kCo1Fqfo-1" value="BOOKS" style="rounded=0;whiteSpace=wrap;html=1;hachureGap=4;" vertex="1" parent="1">
          <mxGeometry x="560" y="470" width="160" height="80" as="geometry" />
        </mxCell>
        <mxCell id="Iq8c3u90SP98kCo1Fqfo-8" style="edgeStyle=none;curved=1;rounded=0;orthogonalLoop=1;jettySize=auto;html=1;exitX=0.5;exitY=0;exitDx=0;exitDy=0;endArrow=open;startSize=14;endSize=14;targetPerimeterSpacing=8;startArrow=none;" edge="1" parent="1" source="Iq8c3u90SP98kCo1Fqfo-9">
          <mxGeometry relative="1" as="geometry">
            <mxPoint x="220" y="128" as="targetPoint" />
          </mxGeometry>
        </mxCell>
        <mxCell id="Iq8c3u90SP98kCo1Fqfo-32" style="edgeStyle=none;curved=1;rounded=0;orthogonalLoop=1;jettySize=auto;html=1;exitX=0;exitY=0;exitDx=0;exitDy=0;entryX=0;entryY=0;entryDx=0;entryDy=0;endArrow=open;startSize=14;endSize=14;sourcePerimeterSpacing=8;targetPerimeterSpacing=8;" edge="1" parent="1" source="Iq8c3u90SP98kCo1Fqfo-2" target="Iq8c3u90SP98kCo1Fqfo-29">
          <mxGeometry relative="1" as="geometry" />
        </mxCell>
        <mxCell id="Iq8c3u90SP98kCo1Fqfo-36" style="edgeStyle=none;curved=1;rounded=0;orthogonalLoop=1;jettySize=auto;html=1;exitX=0;exitY=1;exitDx=0;exitDy=0;entryX=1;entryY=0;entryDx=0;entryDy=0;endArrow=open;startSize=14;endSize=14;sourcePerimeterSpacing=8;targetPerimeterSpacing=8;" edge="1" parent="1" source="Iq8c3u90SP98kCo1Fqfo-2" target="Iq8c3u90SP98kCo1Fqfo-30">
          <mxGeometry relative="1" as="geometry" />
        </mxCell>
        <mxCell id="Iq8c3u90SP98kCo1Fqfo-76" style="edgeStyle=none;curved=1;rounded=0;orthogonalLoop=1;jettySize=auto;html=1;exitX=1;exitY=0.5;exitDx=0;exitDy=0;endArrow=open;startSize=14;endSize=14;sourcePerimeterSpacing=8;targetPerimeterSpacing=8;" edge="1" parent="1" source="Iq8c3u90SP98kCo1Fqfo-2" target="Iq8c3u90SP98kCo1Fqfo-75">
          <mxGeometry relative="1" as="geometry" />
        </mxCell>
        <mxCell id="Iq8c3u90SP98kCo1Fqfo-2" value="STAFF" style="rounded=0;whiteSpace=wrap;html=1;hachureGap=4;" vertex="1" parent="1">
          <mxGeometry x="140" y="320" width="160" height="80" as="geometry" />
        </mxCell>
        <mxCell id="Iq8c3u90SP98kCo1Fqfo-41" style="edgeStyle=none;curved=1;rounded=0;orthogonalLoop=1;jettySize=auto;html=1;exitX=1;exitY=0.5;exitDx=0;exitDy=0;entryX=0;entryY=0.5;entryDx=0;entryDy=0;endArrow=open;startSize=14;endSize=14;sourcePerimeterSpacing=8;targetPerimeterSpacing=8;" edge="1" parent="1" source="Iq8c3u90SP98kCo1Fqfo-3" target="Iq8c3u90SP98kCo1Fqfo-40">
          <mxGeometry relative="1" as="geometry" />
        </mxCell>
        <mxCell id="Iq8c3u90SP98kCo1Fqfo-3" value="READERS" style="rounded=0;whiteSpace=wrap;html=1;hachureGap=4;" vertex="1" parent="1">
          <mxGeometry x="140" y="590" width="160" height="80" as="geometry" />
        </mxCell>
        <mxCell id="Iq8c3u90SP98kCo1Fqfo-81" style="edgeStyle=none;curved=1;rounded=0;orthogonalLoop=1;jettySize=auto;html=1;exitX=0.75;exitY=0;exitDx=0;exitDy=0;entryX=0.5;entryY=1;entryDx=0;entryDy=0;endArrow=open;startSize=14;endSize=14;sourcePerimeterSpacing=8;targetPerimeterSpacing=8;" edge="1" parent="1" source="Iq8c3u90SP98kCo1Fqfo-4" target="Iq8c3u90SP98kCo1Fqfo-78">
          <mxGeometry relative="1" as="geometry" />
        </mxCell>
        <mxCell id="Iq8c3u90SP98kCo1Fqfo-82" style="edgeStyle=none;curved=1;rounded=0;orthogonalLoop=1;jettySize=auto;html=1;exitX=0.25;exitY=0;exitDx=0;exitDy=0;entryX=0.78;entryY=1.041;entryDx=0;entryDy=0;entryPerimeter=0;endArrow=open;startSize=14;endSize=14;sourcePerimeterSpacing=8;targetPerimeterSpacing=8;" edge="1" parent="1" source="Iq8c3u90SP98kCo1Fqfo-4" target="Iq8c3u90SP98kCo1Fqfo-79">
          <mxGeometry relative="1" as="geometry" />
        </mxCell>
        <mxCell id="Iq8c3u90SP98kCo1Fqfo-4" value="AUTHENTICATION&lt;br&gt;SYSTEM" style="rounded=0;whiteSpace=wrap;html=1;hachureGap=4;" vertex="1" parent="1">
          <mxGeometry x="550" y="140" width="160" height="80" as="geometry" />
        </mxCell>
        <mxCell id="Iq8c3u90SP98kCo1Fqfo-27" style="edgeStyle=none;curved=1;rounded=0;orthogonalLoop=1;jettySize=auto;html=1;exitX=0.5;exitY=0;exitDx=0;exitDy=0;entryX=0.5;entryY=1;entryDx=0;entryDy=0;endArrow=open;startSize=14;endSize=14;sourcePerimeterSpacing=8;targetPerimeterSpacing=8;" edge="1" parent="1" source="Iq8c3u90SP98kCo1Fqfo-9" target="Iq8c3u90SP98kCo1Fqfo-11">
          <mxGeometry relative="1" as="geometry" />
        </mxCell>
        <mxCell id="Iq8c3u90SP98kCo1Fqfo-9" value="Manages" style="rhombus;whiteSpace=wrap;html=1;hachureGap=4;" vertex="1" parent="1">
          <mxGeometry x="180" y="130" width="80" height="80" as="geometry" />
        </mxCell>
        <mxCell id="Iq8c3u90SP98kCo1Fqfo-10" value="" style="edgeStyle=none;curved=1;rounded=0;orthogonalLoop=1;jettySize=auto;html=1;exitX=0.5;exitY=0;exitDx=0;exitDy=0;endArrow=none;startSize=14;endSize=14;sourcePerimeterSpacing=8;" edge="1" parent="1" source="Iq8c3u90SP98kCo1Fqfo-2" target="Iq8c3u90SP98kCo1Fqfo-9">
          <mxGeometry relative="1" as="geometry">
            <mxPoint x="220" y="320" as="sourcePoint" />
            <mxPoint x="220" y="128" as="targetPoint" />
          </mxGeometry>
        </mxCell>
        <mxCell id="Iq8c3u90SP98kCo1Fqfo-16" style="edgeStyle=none;curved=1;rounded=0;orthogonalLoop=1;jettySize=auto;html=1;exitX=0;exitY=0.5;exitDx=0;exitDy=0;entryX=1;entryY=0.5;entryDx=0;entryDy=0;endArrow=open;startSize=14;endSize=14;sourcePerimeterSpacing=8;targetPerimeterSpacing=8;" edge="1" parent="1" source="Iq8c3u90SP98kCo1Fqfo-11" target="Iq8c3u90SP98kCo1Fqfo-12">
          <mxGeometry relative="1" as="geometry" />
        </mxCell>
        <mxCell id="Iq8c3u90SP98kCo1Fqfo-18" style="edgeStyle=none;curved=1;rounded=0;orthogonalLoop=1;jettySize=auto;html=1;exitX=0;exitY=0.5;exitDx=0;exitDy=0;endArrow=open;startSize=14;endSize=14;sourcePerimeterSpacing=8;targetPerimeterSpacing=8;" edge="1" parent="1" source="Iq8c3u90SP98kCo1Fqfo-11" target="Iq8c3u90SP98kCo1Fqfo-13">
          <mxGeometry relative="1" as="geometry" />
        </mxCell>
        <mxCell id="Iq8c3u90SP98kCo1Fqfo-21" style="edgeStyle=none;curved=1;rounded=0;orthogonalLoop=1;jettySize=auto;html=1;exitX=0;exitY=0.5;exitDx=0;exitDy=0;entryX=1.034;entryY=0.232;entryDx=0;entryDy=0;entryPerimeter=0;endArrow=open;startSize=14;endSize=14;sourcePerimeterSpacing=8;targetPerimeterSpacing=8;" edge="1" parent="1" source="Iq8c3u90SP98kCo1Fqfo-11" target="Iq8c3u90SP98kCo1Fqfo-14">
          <mxGeometry relative="1" as="geometry" />
        </mxCell>
        <mxCell id="Iq8c3u90SP98kCo1Fqfo-25" style="edgeStyle=none;curved=1;rounded=0;orthogonalLoop=1;jettySize=auto;html=1;exitX=1;exitY=0.5;exitDx=0;exitDy=0;entryX=0;entryY=1;entryDx=0;entryDy=0;endArrow=open;startSize=14;endSize=14;sourcePerimeterSpacing=8;targetPerimeterSpacing=8;" edge="1" parent="1" source="Iq8c3u90SP98kCo1Fqfo-11" target="Iq8c3u90SP98kCo1Fqfo-22">
          <mxGeometry relative="1" as="geometry" />
        </mxCell>
        <mxCell id="Iq8c3u90SP98kCo1Fqfo-11" value="Reports" style="rounded=0;whiteSpace=wrap;html=1;hachureGap=4;" vertex="1" parent="1">
          <mxGeometry x="170" y="60" width="100" height="40" as="geometry" />
        </mxCell>
        <mxCell id="Iq8c3u90SP98kCo1Fqfo-12" value="Reg_no" style="ellipse;whiteSpace=wrap;html=1;hachureGap=4;" vertex="1" parent="1">
          <mxGeometry x="20" y="10" width="80" height="40" as="geometry" />
        </mxCell>
        <mxCell id="Iq8c3u90SP98kCo1Fqfo-13" value="Book_no" style="ellipse;whiteSpace=wrap;html=1;hachureGap=4;" vertex="1" parent="1">
          <mxGeometry x="20" y="80" width="80" height="40" as="geometry" />
        </mxCell>
        <mxCell id="Iq8c3u90SP98kCo1Fqfo-14" value="Issue/Return" style="ellipse;whiteSpace=wrap;html=1;hachureGap=4;" vertex="1" parent="1">
          <mxGeometry x="20" y="160" width="80" height="40" as="geometry" />
        </mxCell>
        <mxCell id="Iq8c3u90SP98kCo1Fqfo-22" value="User_id" style="ellipse;whiteSpace=wrap;html=1;hachureGap=4;" vertex="1" parent="1">
          <mxGeometry x="310" y="30" width="90" height="30" as="geometry" />
        </mxCell>
        <mxCell id="Iq8c3u90SP98kCo1Fqfo-28" style="edgeStyle=none;curved=1;rounded=0;orthogonalLoop=1;jettySize=auto;html=1;exitX=0.5;exitY=1;exitDx=0;exitDy=0;endArrow=open;startSize=14;endSize=14;sourcePerimeterSpacing=8;targetPerimeterSpacing=8;" edge="1" parent="1" source="Iq8c3u90SP98kCo1Fqfo-13" target="Iq8c3u90SP98kCo1Fqfo-13">
          <mxGeometry relative="1" as="geometry" />
        </mxCell>
        <mxCell id="Iq8c3u90SP98kCo1Fqfo-29" value="Name" style="ellipse;whiteSpace=wrap;html=1;hachureGap=4;rotation=-180;" vertex="1" parent="1">
          <mxGeometry x="40" y="260" width="90" height="30" as="geometry" />
        </mxCell>
        <mxCell id="Iq8c3u90SP98kCo1Fqfo-30" value="Staff_id" style="ellipse;whiteSpace=wrap;html=1;hachureGap=4;" vertex="1" parent="1">
          <mxGeometry x="20" y="420" width="110" height="40" as="geometry" />
        </mxCell>
        <mxCell id="Iq8c3u90SP98kCo1Fqfo-38" style="edgeStyle=none;curved=1;rounded=0;orthogonalLoop=1;jettySize=auto;html=1;exitX=0.5;exitY=0;exitDx=0;exitDy=0;entryX=0.567;entryY=0.999;entryDx=0;entryDy=0;entryPerimeter=0;endArrow=open;startSize=14;endSize=14;sourcePerimeterSpacing=8;targetPerimeterSpacing=8;" edge="1" parent="1" source="Iq8c3u90SP98kCo1Fqfo-37" target="Iq8c3u90SP98kCo1Fqfo-2">
          <mxGeometry relative="1" as="geometry" />
        </mxCell>
        <mxCell id="Iq8c3u90SP98kCo1Fqfo-39" style="edgeStyle=none;curved=1;rounded=0;orthogonalLoop=1;jettySize=auto;html=1;exitX=0.5;exitY=1;exitDx=0;exitDy=0;endArrow=open;startSize=14;endSize=14;sourcePerimeterSpacing=8;targetPerimeterSpacing=8;" edge="1" parent="1" source="Iq8c3u90SP98kCo1Fqfo-37" target="Iq8c3u90SP98kCo1Fqfo-3">
          <mxGeometry relative="1" as="geometry" />
        </mxCell>
        <mxCell id="Iq8c3u90SP98kCo1Fqfo-37" value="Tracks" style="rhombus;whiteSpace=wrap;html=1;hachureGap=4;" vertex="1" parent="1">
          <mxGeometry x="190" y="440" width="80" height="80" as="geometry" />
        </mxCell>
        <mxCell id="Iq8c3u90SP98kCo1Fqfo-42" style="edgeStyle=none;curved=1;rounded=0;orthogonalLoop=1;jettySize=auto;html=1;exitX=1;exitY=0.5;exitDx=0;exitDy=0;entryX=0.012;entryY=0.606;entryDx=0;entryDy=0;entryPerimeter=0;endArrow=open;startSize=14;endSize=14;sourcePerimeterSpacing=8;targetPerimeterSpacing=8;" edge="1" parent="1" source="Iq8c3u90SP98kCo1Fqfo-40" target="Iq8c3u90SP98kCo1Fqfo-1">
          <mxGeometry relative="1" as="geometry" />
        </mxCell>
        <mxCell id="Iq8c3u90SP98kCo1Fqfo-40" value="Borrows" style="rhombus;whiteSpace=wrap;html=1;hachureGap=4;" vertex="1" parent="1">
          <mxGeometry x="385" y="580" width="80" height="80" as="geometry" />
        </mxCell>
        <mxCell id="Iq8c3u90SP98kCo1Fqfo-56" style="edgeStyle=none;curved=1;rounded=0;orthogonalLoop=1;jettySize=auto;html=1;exitX=0.5;exitY=0;exitDx=0;exitDy=0;entryX=0;entryY=1;entryDx=0;entryDy=0;endArrow=open;startSize=14;endSize=14;sourcePerimeterSpacing=8;targetPerimeterSpacing=8;" edge="1" parent="1" source="Iq8c3u90SP98kCo1Fqfo-43" target="Iq8c3u90SP98kCo1Fqfo-3">
          <mxGeometry relative="1" as="geometry" />
        </mxCell>
        <mxCell id="Iq8c3u90SP98kCo1Fqfo-43" value="Name" style="ellipse;whiteSpace=wrap;html=1;hachureGap=4;" vertex="1" parent="1">
          <mxGeometry x="60" y="760" width="70" height="40" as="geometry" />
        </mxCell>
        <mxCell id="Iq8c3u90SP98kCo1Fqfo-54" style="edgeStyle=none;curved=1;rounded=0;orthogonalLoop=1;jettySize=auto;html=1;exitX=0.5;exitY=0;exitDx=0;exitDy=0;entryX=0.59;entryY=1;entryDx=0;entryDy=0;entryPerimeter=0;endArrow=open;startSize=14;endSize=14;sourcePerimeterSpacing=8;targetPerimeterSpacing=8;" edge="1" parent="1" source="Iq8c3u90SP98kCo1Fqfo-44" target="Iq8c3u90SP98kCo1Fqfo-3">
          <mxGeometry relative="1" as="geometry" />
        </mxCell>
        <mxCell id="Iq8c3u90SP98kCo1Fqfo-44" value="Customer ID" style="ellipse;whiteSpace=wrap;html=1;hachureGap=4;" vertex="1" parent="1">
          <mxGeometry x="200" y="760" width="70" height="40" as="geometry" />
        </mxCell>
        <mxCell id="Iq8c3u90SP98kCo1Fqfo-55" style="edgeStyle=none;curved=1;rounded=0;orthogonalLoop=1;jettySize=auto;html=1;exitX=0.5;exitY=0;exitDx=0;exitDy=0;entryX=1;entryY=1;entryDx=0;entryDy=0;endArrow=open;startSize=14;endSize=14;sourcePerimeterSpacing=8;targetPerimeterSpacing=8;" edge="1" parent="1" source="Iq8c3u90SP98kCo1Fqfo-45" target="Iq8c3u90SP98kCo1Fqfo-3">
          <mxGeometry relative="1" as="geometry" />
        </mxCell>
        <mxCell id="Iq8c3u90SP98kCo1Fqfo-45" value="Address" style="ellipse;whiteSpace=wrap;html=1;hachureGap=4;" vertex="1" parent="1">
          <mxGeometry x="350" y="760" width="70" height="40" as="geometry" />
        </mxCell>
        <mxCell id="Iq8c3u90SP98kCo1Fqfo-52" style="edgeStyle=none;curved=1;rounded=0;orthogonalLoop=1;jettySize=auto;html=1;exitX=0.5;exitY=0;exitDx=0;exitDy=0;entryX=0.385;entryY=1;entryDx=0;entryDy=0;entryPerimeter=0;endArrow=open;startSize=14;endSize=14;sourcePerimeterSpacing=8;targetPerimeterSpacing=8;" edge="1" parent="1" source="Iq8c3u90SP98kCo1Fqfo-46" target="Iq8c3u90SP98kCo1Fqfo-3">
          <mxGeometry relative="1" as="geometry" />
        </mxCell>
        <mxCell id="Iq8c3u90SP98kCo1Fqfo-46" value="Email" style="ellipse;whiteSpace=wrap;html=1;hachureGap=4;" vertex="1" parent="1">
          <mxGeometry x="110" y="880" width="70" height="40" as="geometry" />
        </mxCell>
        <mxCell id="Iq8c3u90SP98kCo1Fqfo-53" style="edgeStyle=none;curved=1;rounded=0;orthogonalLoop=1;jettySize=auto;html=1;exitX=0.5;exitY=0;exitDx=0;exitDy=0;entryX=0.89;entryY=1.047;entryDx=0;entryDy=0;entryPerimeter=0;endArrow=open;startSize=14;endSize=14;sourcePerimeterSpacing=8;targetPerimeterSpacing=8;" edge="1" parent="1" source="Iq8c3u90SP98kCo1Fqfo-47" target="Iq8c3u90SP98kCo1Fqfo-3">
          <mxGeometry relative="1" as="geometry" />
        </mxCell>
        <mxCell id="Iq8c3u90SP98kCo1Fqfo-47" value="Phone No" style="ellipse;whiteSpace=wrap;html=1;hachureGap=4;" vertex="1" parent="1">
          <mxGeometry x="290" y="880" width="70" height="40" as="geometry" />
        </mxCell>
        <mxCell id="Iq8c3u90SP98kCo1Fqfo-57" value="Price" style="ellipse;whiteSpace=wrap;html=1;hachureGap=4;" vertex="1" parent="1">
          <mxGeometry x="490" y="640" width="100" height="60" as="geometry" />
        </mxCell>
        <mxCell id="Iq8c3u90SP98kCo1Fqfo-58" value="Status" style="ellipse;whiteSpace=wrap;html=1;hachureGap=4;" vertex="1" parent="1">
          <mxGeometry x="540" y="760" width="100" height="60" as="geometry" />
        </mxCell>
        <mxCell id="Iq8c3u90SP98kCo1Fqfo-59" value="Book_id" style="ellipse;whiteSpace=wrap;html=1;hachureGap=4;" vertex="1" parent="1">
          <mxGeometry x="690" y="760" width="100" height="60" as="geometry" />
        </mxCell>
        <mxCell id="Iq8c3u90SP98kCo1Fqfo-60" value="Category" style="ellipse;whiteSpace=wrap;html=1;hachureGap=4;" vertex="1" parent="1">
          <mxGeometry x="730" y="630" width="100" height="60" as="geometry" />
        </mxCell>
        <mxCell id="Iq8c3u90SP98kCo1Fqfo-74" style="edgeStyle=none;curved=1;rounded=0;orthogonalLoop=1;jettySize=auto;html=1;exitX=0.5;exitY=0;exitDx=0;exitDy=0;entryX=0.425;entryY=1.029;entryDx=0;entryDy=0;entryPerimeter=0;endArrow=open;startSize=14;endSize=14;sourcePerimeterSpacing=8;targetPerimeterSpacing=8;" edge="1" parent="1" source="Iq8c3u90SP98kCo1Fqfo-73" target="Iq8c3u90SP98kCo1Fqfo-1">
          <mxGeometry relative="1" as="geometry" />
        </mxCell>
        <mxCell id="Iq8c3u90SP98kCo1Fqfo-73" value="Author" style="ellipse;whiteSpace=wrap;html=1;hachureGap=4;" vertex="1" parent="1">
          <mxGeometry x="620" y="840" width="100" height="60" as="geometry" />
        </mxCell>
        <mxCell id="Iq8c3u90SP98kCo1Fqfo-77" style="edgeStyle=none;curved=1;rounded=0;orthogonalLoop=1;jettySize=auto;html=1;exitX=1;exitY=0.5;exitDx=0;exitDy=0;entryX=0.452;entryY=1.049;entryDx=0;entryDy=0;entryPerimeter=0;endArrow=open;startSize=14;endSize=14;sourcePerimeterSpacing=8;targetPerimeterSpacing=8;" edge="1" parent="1" source="Iq8c3u90SP98kCo1Fqfo-75" target="Iq8c3u90SP98kCo1Fqfo-4">
          <mxGeometry relative="1" as="geometry" />
        </mxCell>
        <mxCell id="Iq8c3u90SP98kCo1Fqfo-75" value="Login" style="rhombus;whiteSpace=wrap;html=1;hachureGap=4;" vertex="1" parent="1">
          <mxGeometry x="420" y="310" width="100" height="80" as="geometry" />
        </mxCell>
        <mxCell id="Iq8c3u90SP98kCo1Fqfo-78" value="password" style="ellipse;whiteSpace=wrap;html=1;hachureGap=4;" vertex="1" parent="1">
          <mxGeometry x="670" y="40" width="120" height="60" as="geometry" />
        </mxCell>
        <mxCell id="Iq8c3u90SP98kCo1Fqfo-79" value="LoginID" style="ellipse;whiteSpace=wrap;html=1;hachureGap=4;" vertex="1" parent="1">
          <mxGeometry x="460" y="40" width="120" height="60" as="geometry" />
        </mxCell>
      </root>
    </mxGraphModel>
  </diagram>
</mxfile>
